<svg xmlns="http://www.w3.org/2000/svg" viewBox="0 0 200 200">
  <ellipse cx="100" cy="170" rx="70" ry="10" fill="#00000014"/>
  <circle cx="100" cy="105" r="85" fill="#F1F1EF"/>
  <circle cx="100" cy="105" r="85" fill="none" stroke="#D2D2CE" stroke-width="4"/>
  <circle cx="100" cy="105" r="58" fill="none" stroke="#E1E1DD" stroke-width="3"/>

  <!-- comida principal (tipo milanesa/carne) -->
  <path d="M55 100 Q50 70 90 66 Q135 60 145 92 Q150 118 118 128 Q75 138 55 100 Z" fill="#C6884F"/>
  <path d="M55 100 Q50 70 90 66 Q135 60 145 92 Q150 118 118 128 Q75 138 55 100 Z" fill="none" stroke="#A66C3B" stroke-width="3"/>

  <!-- guarnicion: arvejas -->
  <circle cx="128" cy="128" r="6" fill="#7FB55E"/>
  <circle cx="141" cy="120" r="6" fill="#7FB55E"/>
  <circle cx="138" cy="136" r="6" fill="#6BA24D"/>

  <!-- guarnicion: tomate -->
  <circle cx="70" cy="135" r="11" fill="#D9573D"/>
  <path d="M62 135 L78 135 M70 127 L70 143" stroke="#B84631" stroke-width="2"/>
</svg>
